<svg xmlns="http://www.w3.org/2000/svg" viewBox="0 0 267 88" width="267" height="88" role="img" aria-label="PLAYO">
  <g fill="#FFFFFF">
    <path d="M16.48 72.72L16.48 72.72Q12.96 72.72 11.04 70.76Q9.12 68.80 9.12 65.28L9.12 65.28L9.12 23.04Q9.12 19.44 11.08 17.52Q13.04 15.60 16.56 15.60L16.56 15.60L36.24 15.60Q45.84 15.60 51.08 20.52Q56.32 25.44 56.32 34.08L56.32 34.08Q56.32 42.72 51.08 47.64Q45.84 52.56 36.24 52.56L36.24 52.56L23.84 52.56L23.84 65.28Q23.84 68.80 22 70.76Q20.16 72.72 16.48 72.72ZM23.84 26.88L23.84 41.28L33.68 41.28Q37.84 41.28 40.08 39.48Q42.32 37.68 42.32 34.08L42.32 34.08Q42.32 30.40 40.08 28.64Q37.84 26.88 33.68 26.88L33.68 26.88L23.84 26.88Z"/>
    <path d="M93.44 72L66.64 72Q63.12 72 61.16 70.04Q59.20 68.08 59.20 64.56L59.20 64.56L59.20 22.96Q59.20 19.36 61.12 17.44Q63.04 15.52 66.56 15.52L66.56 15.52Q70.16 15.52 72.04 17.44Q73.92 19.36 73.92 22.96L73.92 22.96L73.92 59.76L93.44 59.76Q96.48 59.76 98.12 61.32Q99.76 62.88 99.76 65.84L99.76 65.84Q99.76 68.80 98.12 70.40Q96.48 72 93.44 72L93.44 72Z"/>
    <path d="M108.64 72.72L108.64 72.72Q106.16 72.72 104.48 71.56Q102.80 70.40 102.40 68.36Q102 66.32 103.12 63.76L103.12 63.76L123.04 20.88Q124.48 17.76 126.60 16.32Q128.72 14.88 131.44 14.88L131.44 14.88Q134.16 14.88 136.20 16.32Q138.24 17.76 139.76 20.88L139.76 20.88L159.68 63.76Q160.96 66.32 160.60 68.40Q160.24 70.48 158.60 71.60Q156.96 72.72 154.56 72.72L154.56 72.72Q151.36 72.72 149.64 71.28Q147.92 69.84 146.56 66.64L146.56 66.64L142.24 56.48L147.84 60.56L114.88 60.56L120.56 56.48L116.24 66.64Q114.80 69.84 113.28 71.28Q111.76 72.72 108.64 72.72ZM131.44 30.96L131.28 30.96L122 53.12L119.76 49.28L143.04 49.28L140.80 53.12L131.44 30.96Z"/>
    <path d="M175.68 72.72L175.68 72.72Q172.16 72.72 170.24 70.76Q168.32 68.80 168.32 65.12L168.32 65.12L168.32 43.20L171.36 51.28L152.96 24.80Q151.60 22.88 151.80 20.52Q152 18.16 153.72 16.52Q155.44 14.88 158.64 14.88L158.64 14.88Q160.88 14.88 162.72 15.96Q164.56 17.04 166.16 19.60L166.16 19.60L177.36 36.08L174.48 36.08L185.68 19.52Q187.36 16.96 189.12 15.92Q190.88 14.88 193.28 14.88L193.28 14.88Q196.32 14.88 198 16.40Q199.68 17.92 199.80 20.24Q199.92 22.56 198.32 24.96L198.32 24.96L180.08 51.28L183.04 43.20L183.04 65.12Q183.04 72.72 175.68 72.72Z"/>
  </g>
  <g fill="#F97316">
    <path d="M229.84 72.88L229.84 72.88Q221.28 72.88 214.80 69.24Q208.32 65.60 204.76 59.04Q201.20 52.48 201.20 43.76L201.20 43.76Q201.20 37.20 203.24 31.84Q205.28 26.48 209.08 22.64Q212.88 18.80 218.16 16.76Q223.44 14.72 229.84 14.72L229.84 14.72Q238.40 14.72 244.84 18.32Q251.28 21.92 254.88 28.44Q258.48 34.96 258.48 43.76L258.48 43.76Q258.48 50.32 256.44 55.68Q254.40 61.04 250.60 64.92Q246.80 68.80 241.52 70.84Q236.24 72.88 229.84 72.88ZM229.84 60.56L229.84 60.56Q234.08 60.56 237.04 58.56Q240 56.56 241.60 52.80Q243.20 49.04 243.20 43.76L243.20 43.76Q243.20 35.84 239.68 31.44Q236.16 27.04 229.84 27.04L229.84 27.04Q225.68 27.04 222.68 29Q219.68 30.96 218.08 34.68Q216.48 38.40 216.48 43.76L216.48 43.76Q216.48 51.68 220.00 56.12Q223.52 60.56 229.84 60.56Z"/>
  </g>
</svg>